<svg width="31" height="31" viewBox="0 0 31 31" fill="none" xmlns="http://www.w3.org/2000/svg">
<circle cx="15.5" cy="15.5" r="15.5" fill="#1D46F3"/>
<path d="M12.6592 17.4992C13.3887 12.5263 16.9263 10.8543 19.1581 10.7521C11.211 6.75972 9.02323 14.5042 9.01172 19.8433C9.00726 21.9125 11.5389 21.7515 12.1279 20.0283C12.3215 19.4618 12.4899 18.6531 12.6592 17.4992Z" fill="white"/>
<path d="M15.221 14.1857C20.9602 9.26707 22.4338 14.3926 22.4453 19.7316C22.4492 21.5349 20.0394 21.8217 19.3469 20.2509C19.0968 19.6834 18.8922 18.9023 18.6864 17.4991C18.4757 16.0631 18.4333 16.5492 18.2876 15.8863C17.9287 14.2536 17.3149 13.7159 15.221 14.1857Z" fill="white"/>
</svg>
